<?xml version="1.0" standalone="no"?>
<!DOCTYPE svg PUBLIC "-//W3C//DTD SVG 20010904//EN"
 "http://www.w3.org/TR/2001/REC-SVG-20010904/DTD/svg10.dtd">
<svg version="1.0" xmlns="http://www.w3.org/2000/svg"
 width="260.000000pt" height="260.000000pt" viewBox="0 0 260.000000 260.000000"
 preserveAspectRatio="xMidYMid meet">
<metadata>
Created by potrace 1.14, written by Peter Selinger 2001-2017
</metadata>
<g transform="translate(0.000000,260.000000) scale(0.100000,-0.100000)"
fill="#000000" stroke="none">
<path d="M634 1870 c-139 -19 -249 -69 -342 -155 -109 -101 -167 -222 -178
-376 -26 -361 267 -640 648 -616 140 9 293 56 378 117 l30 21 0 230 0 229
-115 0 -115 0 0 -166 0 -165 -37 -16 c-151 -62 -347 -26 -439 81 -95 110 -116
277 -53 412 95 202 403 252 583 93 l35 -30 78 73 c43 40 80 74 83 76 12 9
-105 103 -163 131 -112 55 -265 78 -393 61z"/>
<path d="M1460 1300 l0 -560 130 0 130 0 0 230 0 230 255 0 255 0 0 -230 0
-230 130 0 130 0 -2 558 -3 557 -127 3 -128 3 0 -221 0 -220 -255 0 -255 0 0
220 0 220 -130 0 -130 0 0 -560z"/>
</g>
</svg>
