<svg height="512pt" viewBox="0 0 512 512" width="512pt" xmlns="http://www.w3.org/2000/svg" xmlns:xlink="http://www.w3.org/1999/xlink"><linearGradient id="a" gradientTransform="matrix(1 0 0 -1 0 -10886)" gradientUnits="userSpaceOnUse" x1="0" x2="512" y1="-11142" y2="-11142"><stop offset="0" stop-color="#00f38d"/><stop offset="1" stop-color="#009eff"/></linearGradient><path d="m512 256c0 141.386719-114.613281 256-256 256s-256-114.613281-256-256 114.613281-256 256-256 256 114.613281 256 256zm0 0" fill="url(#a)"/><path d="m379.296875 441h-138.417969l-152.957031-153.710938c-8.253906-8.222656-12.832031-19.230468-12.84375-30.945312s4.542969-22.730469 12.824219-31.019531l152.957031-154.324219h138.324219l-185.730469 185.339844zm-125.949219-30h53.191406l-155.601562-154.617188 155.710938-155.382812h-53.285157l-144.195312 145.488281c-2.65625 2.660157-4.09375 6.132813-4.089844 9.824219.003906 3.695312 1.445313 7.164062 4.0625 9.773438zm0 0" fill="#fff"/></svg>